<?xml version="1.0" encoding="UTF-8" standalone="no"?>
<!-- Created with Inkscape (http://www.inkscape.org/) -->

<svg
   width="144.17599mm"
   height="176.65657mm"
   viewBox="0 0 144.176 176.65657"
   version="1.1"
   id="svg1"
   xmlns="http://www.w3.org/2000/svg"
   xmlns:svg="http://www.w3.org/2000/svg">
  <defs
     id="defs1" />
  <g
     id="layer1"
     transform="translate(-20.112563,-43.470517)">
    <path
       id="path1"
       style="fill:#ffffff;fill-opacity:1;stroke-width:0.353021"
       d="m 78.489266,55.110848 a 48.876575,46.632244 0 0 0 -48.876603,46.632292 48.876575,46.632244 0 0 0 48.876603,46.6323 48.876575,46.632244 0 0 0 18.686715,-3.63854 l 39.679229,59.34987 c 2.96153,4.42966 8.98737,5.72871 13.51081,2.91248 4.52343,-2.81623 5.78099,-8.64964 2.81946,-13.0793 l -39.86527,-59.62841 a 48.876575,46.632244 0 0 0 14.04566,-32.5484 48.876575,46.632244 0 0 0 -48.876604,-46.632292 z m 0,11.221537 A 36.408062,35.41058 0 0 1 114.89738,101.74314 36.408062,35.41058 0 0 1 78.489266,137.15339 36.408062,35.41058 0 0 1 42.081152,101.74314 36.408062,35.41058 0 0 1 78.489266,66.332385 Z" />
    <path
       style="fill:#f9f9f9;fill-opacity:1;stroke-width:0.264583"
       d="m 48.585643,102.40806 c 0.124686,-4.073049 2.701511,-10.224182 6.608311,-14.879093 3.9068,-4.654912 9.143576,-7.813603 12.925692,-9.559195 3.782117,-1.745592 6.109572,-2.078085 5.984887,-1.537783 -0.124684,0.540302 -2.701511,1.953401 -5.860201,4.696474 -3.158689,2.743072 -6.899245,6.81612 -9.517633,10.473551 -2.618388,3.65743 -4.114609,6.899243 -4.86272,9.974806 -0.748111,3.07557 -0.748111,5.98489 -1.911839,6.44207 -1.163727,0.45718 -3.491184,-1.53778 -3.366497,-5.61083 z"
       id="path5"
       transform="translate(-0.74811083,-3.4911839)" />
  </g>
</svg>
